<mxfile host="app.diagrams.net" modified="2023-03-21T22:18:08.964Z" agent="5.0 (Windows NT 10.0; Win64; x64) AppleWebKit/537.36 (KHTML, like Gecko) Chrome/111.0.0.0 Safari/537.36" etag="nLSwXVfp5QPS-RP7OQrG" version="21.0.8" type="github">
  <diagram name="PÃ¡gina-1" id="_dQN471PL4yBj2IjJJKB">
    <mxGraphModel dx="1748" dy="956" grid="1" gridSize="10" guides="1" tooltips="1" connect="1" arrows="1" fold="1" page="1" pageScale="1" pageWidth="827" pageHeight="1169" math="0" shadow="0">
      <root>
        <mxCell id="0" />
        <mxCell id="1" parent="0" />
      </root>
    </mxGraphModel>
  </diagram>
</mxfile>
